<svg xmlns="http://www.w3.org/2000/svg" xmlns:xlink="http://www.w3.org/1999/xlink" width="1080" zoomAndPan="magnify" viewBox="0 0 810 809.999993" height="1080" preserveAspectRatio="xMidYMid meet" version="1.0"><defs><clipPath id="3b769760c8"><path d="M 235.410156 160.1875 L 405 160.1875 L 405 552 L 235.410156 552 Z M 235.410156 160.1875 " clip-rule="nonzero"/></clipPath><clipPath id="2b3d28e8aa"><path d="M 405 258 L 574.410156 258 L 574.410156 649.9375 L 405 649.9375 Z M 405 258 " clip-rule="nonzero"/></clipPath></defs><g clip-path="url(#3b769760c8)"><path fill="#07393c" d="M 405 160.28125 L 405 258.191406 L 320.207031 307.144531 L 320.207031 405.054688 L 405 454.011719 L 405 551.917969 L 235.410156 454.011719 L 235.410156 258.191406 Z M 405 160.28125 " fill-opacity="1" fill-rule="evenodd"/></g><g clip-path="url(#2b3d28e8aa)"><path fill="#2c666e" d="M 405 356.097656 L 489.792969 405.054688 L 489.792969 502.964844 L 405 551.917969 L 405 649.828125 L 574.585938 551.917969 L 574.585938 356.097656 L 405 258.191406 Z M 405 356.097656 " fill-opacity="1" fill-rule="evenodd"/></g><path fill="#90ddf0" d="M 457.992188 190.875 L 457.992188 264.308594 L 521.59375 301.027344 L 521.59375 227.59375 Z M 457.992188 190.875 " fill-opacity="1" fill-rule="evenodd"/></svg>