<svg xmlns="http://www.w3.org/2000/svg" xmlns:xlink="http://www.w3.org/1999/xlink" width="1080" zoomAndPan="magnify" viewBox="0 0 810 809.999993" height="1080" preserveAspectRatio="xMidYMid meet" version="1.0"><defs><g/><clipPath id="727fe4f9c4"><path d="M 249.898438 75.328125 L 405 75.328125 L 405 434 L 249.898438 434 Z M 249.898438 75.328125 " clip-rule="nonzero"/></clipPath><clipPath id="40a1c23abc"><path d="M 404 164 L 560.398438 164 L 560.398438 523.078125 L 404 523.078125 Z M 404 164 " clip-rule="nonzero"/></clipPath></defs><g clip-path="url(#727fe4f9c4)"><path fill="#07393c" d="M 404.996094 75.410156 L 404.996094 164.957031 L 327.449219 209.726562 L 327.449219 299.269531 L 404.996094 344.042969 L 404.996094 433.585938 L 249.898438 344.042969 L 249.898438 164.957031 Z M 404.996094 75.410156 " fill-opacity="1" fill-rule="evenodd"/></g><g clip-path="url(#40a1c23abc)"><path fill="#2c666e" d="M 404.996094 254.5 L 482.546875 299.269531 L 482.546875 388.816406 L 404.996094 433.585938 L 404.996094 523.132812 L 560.09375 433.585938 L 560.09375 254.5 L 404.996094 164.957031 Z M 404.996094 254.5 " fill-opacity="1" fill-rule="evenodd"/></g><path fill="#90ddf0" d="M 453.460938 103.394531 L 453.460938 170.550781 L 511.628906 204.132812 L 511.628906 136.972656 Z M 453.460938 103.394531 " fill-opacity="1" fill-rule="evenodd"/><g fill="#07393c" fill-opacity="1"><g transform="translate(219.460332, 658.700844)"><g><path d="M 103.546875 -99.984375 L 103.546875 0 L 84.546875 0 L 34.703125 -60.703125 L 34.703125 0 L 11.859375 0 L 11.859375 -99.984375 L 31 -99.984375 L 80.703125 -39.28125 L 80.703125 -99.984375 Z M 103.546875 -99.984375 "/></g></g></g><g fill="#07393c" fill-opacity="1"><g transform="translate(334.856268, 658.700844)"><g><path d="M 11.859375 -99.984375 L 35 -99.984375 L 35 0 L 11.859375 0 Z M 11.859375 -99.984375 "/></g></g></g><g fill="#07393c" fill-opacity="1"><g transform="translate(381.700168, 658.700844)"><g><path d="M 32.5625 -81.125 L 0.578125 -81.125 L 0.578125 -99.984375 L 87.703125 -99.984375 L 87.703125 -81.125 L 55.703125 -81.125 L 55.703125 0 L 32.5625 0 Z M 32.5625 -81.125 "/></g></g></g><g fill="#07393c" fill-opacity="1"><g transform="translate(469.960916, 658.700844)"><g><path d="M 60.28125 1.71875 C 49.894531 1.71875 40.535156 -0.519531 32.203125 -5 C 23.867188 -9.476562 17.34375 -15.644531 12.625 -23.5 C 7.914062 -31.351562 5.5625 -40.179688 5.5625 -49.984375 C 5.5625 -59.796875 7.914062 -68.628906 12.625 -76.484375 C 17.34375 -84.335938 23.867188 -90.5 32.203125 -94.96875 C 40.535156 -99.445312 49.894531 -101.6875 60.28125 -101.6875 C 70.65625 -101.6875 79.984375 -99.445312 88.265625 -94.96875 C 96.546875 -90.5 103.066406 -84.335938 107.828125 -76.484375 C 112.597656 -68.628906 114.984375 -59.796875 114.984375 -49.984375 C 114.984375 -40.179688 112.597656 -31.351562 107.828125 -23.5 C 103.066406 -15.644531 96.546875 -9.476562 88.265625 -5 C 79.984375 -0.519531 70.65625 1.71875 60.28125 1.71875 Z M 60.28125 -18 C 66.175781 -18 71.503906 -19.351562 76.265625 -22.0625 C 81.023438 -24.78125 84.757812 -28.566406 87.46875 -33.421875 C 90.1875 -38.273438 91.546875 -43.796875 91.546875 -49.984375 C 91.546875 -56.179688 90.1875 -61.707031 87.46875 -66.5625 C 84.757812 -71.414062 81.023438 -75.195312 76.265625 -77.90625 C 71.503906 -80.625 66.175781 -81.984375 60.28125 -81.984375 C 54.375 -81.984375 49.039062 -80.625 44.28125 -77.90625 C 39.519531 -75.195312 35.78125 -71.414062 33.0625 -66.5625 C 30.351562 -61.707031 29 -56.179688 29 -49.984375 C 29 -43.796875 30.351562 -38.273438 33.0625 -33.421875 C 35.78125 -28.566406 39.519531 -24.78125 44.28125 -22.0625 C 49.039062 -19.351562 54.375 -18 60.28125 -18 Z M 60.28125 -18 "/></g></g></g><g fill="#2c666e" fill-opacity="1"><g transform="translate(316.541483, 720.872278)"><g><path d="M 5.796875 -35.625 L 9.5625 -35.625 L 9.5625 -3.25 L 29.515625 -3.25 L 29.515625 0 L 5.796875 0 Z M 5.796875 -35.625 "/></g></g></g><g fill="#2c666e" fill-opacity="1"><g transform="translate(360.10061, 720.872278)"><g><path d="M 28.140625 -9.515625 L 8.296875 -9.515625 L 4.015625 0 L 0.109375 0 L 16.390625 -35.625 L 20.109375 -35.625 L 36.390625 0 L 32.421875 0 Z M 26.765625 -12.5625 L 18.21875 -31.703125 L 9.671875 -12.5625 Z M 26.765625 -12.5625 "/></g></g></g><g fill="#2c666e" fill-opacity="1"><g transform="translate(410.17303, 720.872278)"><g><path d="M 28.25 -18.375 C 30.582031 -17.863281 32.382812 -16.851562 33.65625 -15.34375 C 34.9375 -13.832031 35.578125 -11.890625 35.578125 -9.515625 C 35.578125 -6.460938 34.445312 -4.113281 32.1875 -2.46875 C 29.925781 -0.820312 26.59375 0 22.1875 0 L 5.796875 0 L 5.796875 -35.625 L 21.171875 -35.625 C 25.140625 -35.625 28.21875 -34.828125 30.40625 -33.234375 C 32.59375 -31.640625 33.6875 -29.382812 33.6875 -26.46875 C 33.6875 -24.5 33.203125 -22.828125 32.234375 -21.453125 C 31.265625 -20.078125 29.9375 -19.050781 28.25 -18.375 Z M 9.5625 -32.515625 L 9.5625 -19.59375 L 20.921875 -19.59375 C 23.796875 -19.59375 26.015625 -20.144531 27.578125 -21.25 C 29.140625 -22.351562 29.921875 -23.957031 29.921875 -26.0625 C 29.921875 -28.164062 29.140625 -29.765625 27.578125 -30.859375 C 26.015625 -31.960938 23.796875 -32.515625 20.921875 -32.515625 Z M 22.140625 -3.109375 C 25.328125 -3.109375 27.734375 -3.648438 29.359375 -4.734375 C 30.992188 -5.816406 31.8125 -7.515625 31.8125 -9.828125 C 31.8125 -14.265625 28.585938 -16.484375 22.140625 -16.484375 L 9.5625 -16.484375 L 9.5625 -3.109375 Z M 22.140625 -3.109375 "/></g></g></g><g fill="#2c666e" fill-opacity="1"><g transform="translate(462.128198, 720.872278)"><g><path d="M 15.625 0.3125 C 12.976562 0.3125 10.441406 -0.109375 8.015625 -0.953125 C 5.585938 -1.804688 3.710938 -2.929688 2.390625 -4.328125 L 3.875 -7.21875 C 5.15625 -5.9375 6.863281 -4.894531 9 -4.09375 C 11.144531 -3.300781 13.351562 -2.90625 15.625 -2.90625 C 18.8125 -2.90625 21.203125 -3.488281 22.796875 -4.65625 C 24.390625 -5.820312 25.1875 -7.34375 25.1875 -9.21875 C 25.1875 -10.632812 24.753906 -11.765625 23.890625 -12.609375 C 23.023438 -13.460938 21.960938 -14.117188 20.703125 -14.578125 C 19.453125 -15.035156 17.707031 -15.535156 15.46875 -16.078125 C 12.789062 -16.753906 10.65625 -17.40625 9.0625 -18.03125 C 7.46875 -18.664062 6.097656 -19.625 4.953125 -20.90625 C 3.816406 -22.195312 3.25 -23.945312 3.25 -26.15625 C 3.25 -27.957031 3.722656 -29.59375 4.671875 -31.0625 C 5.628906 -32.539062 7.09375 -33.71875 9.0625 -34.59375 C 11.03125 -35.476562 13.472656 -35.921875 16.390625 -35.921875 C 18.421875 -35.921875 20.410156 -35.640625 22.359375 -35.078125 C 24.316406 -34.523438 26.007812 -33.757812 27.4375 -32.78125 L 26.15625 -29.765625 C 24.664062 -30.753906 23.070312 -31.492188 21.375 -31.984375 C 19.675781 -32.472656 18.015625 -32.71875 16.390625 -32.71875 C 13.265625 -32.71875 10.910156 -32.113281 9.328125 -30.90625 C 7.753906 -29.707031 6.96875 -28.160156 6.96875 -26.265625 C 6.96875 -24.835938 7.398438 -23.691406 8.265625 -22.828125 C 9.128906 -21.960938 10.210938 -21.300781 11.515625 -20.84375 C 12.828125 -20.382812 14.585938 -19.882812 16.796875 -19.34375 C 19.410156 -18.695312 21.519531 -18.054688 23.125 -17.421875 C 24.738281 -16.796875 26.101562 -15.847656 27.21875 -14.578125 C 28.34375 -13.304688 28.90625 -11.585938 28.90625 -9.421875 C 28.90625 -7.617188 28.421875 -5.976562 27.453125 -4.5 C 26.484375 -3.03125 25 -1.859375 23 -0.984375 C 21 -0.117188 18.539062 0.3125 15.625 0.3125 Z M 15.625 0.3125 "/></g></g></g></svg>