<svg xmlns="http://www.w3.org/2000/svg" xmlns:xlink="http://www.w3.org/1999/xlink" width="1080" zoomAndPan="magnify" viewBox="0 0 810 809.999993" height="1080" preserveAspectRatio="xMidYMid meet" version="1.0"><defs><g/></defs><g fill="#07393c" fill-opacity="1"><g transform="translate(189.296563, 439.648526)"><g><path d="M 120.390625 -116.234375 L 120.390625 0 L 98.296875 0 L 40.34375 -70.5625 L 40.34375 0 L 13.78125 0 L 13.78125 -116.234375 L 36.03125 -116.234375 L 93.8125 -45.65625 L 93.8125 -116.234375 Z M 120.390625 -116.234375 "/></g></g></g><g fill="#07393c" fill-opacity="1"><g transform="translate(323.452798, 439.648526)"><g><path d="M 13.78125 -116.234375 L 40.6875 -116.234375 L 40.6875 0 L 13.78125 0 Z M 13.78125 -116.234375 "/></g></g></g><g fill="#07393c" fill-opacity="1"><g transform="translate(377.912267, 439.648526)"><g><path d="M 37.859375 -94.3125 L 0.671875 -94.3125 L 0.671875 -116.234375 L 101.953125 -116.234375 L 101.953125 -94.3125 L 64.765625 -94.3125 L 64.765625 0 L 37.859375 0 Z M 37.859375 -94.3125 "/></g></g></g><g fill="#07393c" fill-opacity="1"><g transform="translate(480.521857, 439.648526)"><g><path d="M 70.078125 2 C 58.003906 2 47.125 -0.597656 37.4375 -5.796875 C 27.757812 -11.003906 20.175781 -18.175781 14.6875 -27.3125 C 9.207031 -36.445312 6.46875 -46.710938 6.46875 -58.109375 C 6.46875 -69.515625 9.207031 -79.78125 14.6875 -88.90625 C 20.175781 -98.039062 27.757812 -105.207031 37.4375 -110.40625 C 47.125 -115.613281 58.003906 -118.21875 70.078125 -118.21875 C 82.140625 -118.21875 92.984375 -115.613281 102.609375 -110.40625 C 112.242188 -105.207031 119.828125 -98.039062 125.359375 -88.90625 C 130.898438 -79.78125 133.671875 -69.515625 133.671875 -58.109375 C 133.671875 -46.710938 130.898438 -36.445312 125.359375 -27.3125 C 119.828125 -18.175781 112.242188 -11.003906 102.609375 -5.796875 C 92.984375 -0.597656 82.140625 2 70.078125 2 Z M 70.078125 -20.921875 C 76.929688 -20.921875 83.125 -22.5 88.65625 -25.65625 C 94.195312 -28.8125 98.546875 -33.210938 101.703125 -38.859375 C 104.859375 -44.503906 106.4375 -50.921875 106.4375 -58.109375 C 106.4375 -65.304688 104.859375 -71.726562 101.703125 -77.375 C 98.546875 -83.019531 94.195312 -87.421875 88.65625 -90.578125 C 83.125 -93.734375 76.929688 -95.3125 70.078125 -95.3125 C 63.210938 -95.3125 57.007812 -93.734375 51.46875 -90.578125 C 45.9375 -87.421875 41.59375 -83.019531 38.4375 -77.375 C 35.28125 -71.726562 33.703125 -65.304688 33.703125 -58.109375 C 33.703125 -50.921875 35.28125 -44.503906 38.4375 -38.859375 C 41.59375 -33.210938 45.9375 -28.8125 51.46875 -25.65625 C 57.007812 -22.5 63.210938 -20.921875 70.078125 -20.921875 Z M 70.078125 -20.921875 "/></g></g></g><g fill="#2c666e" fill-opacity="1"><g transform="translate(302.160513, 511.927072)"><g><path d="M 6.75 -41.40625 L 11.125 -41.40625 L 11.125 -3.78125 L 34.3125 -3.78125 L 34.3125 0 L 6.75 0 Z M 6.75 -41.40625 "/></g></g></g><g fill="#2c666e" fill-opacity="1"><g transform="translate(352.801191, 511.927072)"><g><path d="M 32.71875 -11.0625 L 9.640625 -11.0625 L 4.671875 0 L 0.125 0 L 19.046875 -41.40625 L 23.359375 -41.40625 L 42.296875 0 L 37.6875 0 Z M 31.109375 -14.609375 L 21.171875 -36.859375 L 11.234375 -14.609375 Z M 31.109375 -14.609375 "/></g></g></g><g fill="#2c666e" fill-opacity="1"><g transform="translate(411.014051, 511.927072)"><g><path d="M 32.828125 -21.359375 C 35.546875 -20.765625 37.644531 -19.585938 39.125 -17.828125 C 40.601562 -16.078125 41.34375 -13.820312 41.34375 -11.0625 C 41.34375 -7.507812 40.03125 -4.773438 37.40625 -2.859375 C 34.789062 -0.953125 30.921875 0 25.796875 0 L 6.75 0 L 6.75 -41.40625 L 24.609375 -41.40625 C 29.222656 -41.40625 32.800781 -40.476562 35.34375 -38.625 C 37.882812 -36.769531 39.15625 -34.148438 39.15625 -30.765625 C 39.15625 -28.472656 38.59375 -26.523438 37.46875 -24.921875 C 36.351562 -23.328125 34.804688 -22.140625 32.828125 -21.359375 Z M 11.125 -37.796875 L 11.125 -22.78125 L 24.3125 -22.78125 C 27.664062 -22.78125 30.25 -23.421875 32.0625 -24.703125 C 33.875 -25.984375 34.78125 -27.84375 34.78125 -30.28125 C 34.78125 -32.726562 33.875 -34.59375 32.0625 -35.875 C 30.25 -37.15625 27.664062 -37.796875 24.3125 -37.796875 Z M 25.734375 -3.609375 C 29.441406 -3.609375 32.238281 -4.238281 34.125 -5.5 C 36.019531 -6.757812 36.96875 -8.734375 36.96875 -11.421875 C 36.96875 -16.585938 33.222656 -19.171875 25.734375 -19.171875 L 11.125 -19.171875 L 11.125 -3.609375 Z M 25.734375 -3.609375 "/></g></g></g><g fill="#2c666e" fill-opacity="1"><g transform="translate(471.415743, 511.927072)"><g><path d="M 18.15625 0.359375 C 15.082031 0.359375 12.132812 -0.132812 9.3125 -1.125 C 6.5 -2.113281 4.320312 -3.414062 2.78125 -5.03125 L 4.5 -8.40625 C 6 -6.90625 7.988281 -5.691406 10.46875 -4.765625 C 12.957031 -3.835938 15.519531 -3.375 18.15625 -3.375 C 21.863281 -3.375 24.644531 -4.050781 26.5 -5.40625 C 28.351562 -6.769531 29.28125 -8.535156 29.28125 -10.703125 C 29.28125 -12.359375 28.773438 -13.679688 27.765625 -14.671875 C 26.765625 -15.660156 25.535156 -16.421875 24.078125 -16.953125 C 22.617188 -17.484375 20.585938 -18.0625 17.984375 -18.6875 C 14.867188 -19.476562 12.382812 -20.238281 10.53125 -20.96875 C 8.675781 -21.695312 7.085938 -22.8125 5.765625 -24.3125 C 4.441406 -25.8125 3.78125 -27.84375 3.78125 -30.40625 C 3.78125 -32.5 4.332031 -34.398438 5.4375 -36.109375 C 6.539062 -37.828125 8.234375 -39.195312 10.515625 -40.21875 C 12.804688 -41.25 15.648438 -41.765625 19.046875 -41.765625 C 21.410156 -41.765625 23.726562 -41.4375 26 -40.78125 C 28.269531 -40.132812 30.234375 -39.238281 31.890625 -38.09375 L 30.40625 -34.609375 C 28.664062 -35.753906 26.8125 -36.609375 24.84375 -37.171875 C 22.875 -37.742188 20.941406 -38.03125 19.046875 -38.03125 C 15.421875 -38.03125 12.691406 -37.332031 10.859375 -35.9375 C 9.023438 -34.539062 8.109375 -32.738281 8.109375 -30.53125 C 8.109375 -28.875 8.609375 -27.539062 9.609375 -26.53125 C 10.617188 -25.519531 11.878906 -24.75 13.390625 -24.21875 C 14.910156 -23.6875 16.953125 -23.109375 19.515625 -22.484375 C 22.554688 -21.734375 25.015625 -20.992188 26.890625 -20.265625 C 28.765625 -19.535156 30.347656 -18.429688 31.640625 -16.953125 C 32.941406 -15.472656 33.59375 -13.46875 33.59375 -10.9375 C 33.59375 -8.851562 33.03125 -6.953125 31.90625 -5.234375 C 30.789062 -3.515625 29.066406 -2.148438 26.734375 -1.140625 C 24.410156 -0.140625 21.550781 0.359375 18.15625 0.359375 Z M 18.15625 0.359375 "/></g></g></g></svg>