<svg xmlns="http://www.w3.org/2000/svg" xmlns:xlink="http://www.w3.org/1999/xlink" width="1080" zoomAndPan="magnify" viewBox="0 0 810 809.999993" height="1080" preserveAspectRatio="xMidYMid meet" version="1.0"><defs><g/><clipPath id="ad0d5b57f2"><path d="M 312.628906 206.683594 L 405 206.683594 L 405 421 L 312.628906 421 Z M 312.628906 206.683594 " clip-rule="nonzero"/></clipPath><clipPath id="93318931e7"><path d="M 404 260 L 497.128906 260 L 497.128906 473.683594 L 404 473.683594 Z M 404 260 " clip-rule="nonzero"/></clipPath></defs><g clip-path="url(#ad0d5b57f2)"><path fill="#07393c" d="M 404.996094 206.738281 L 404.996094 260.066406 L 358.8125 286.730469 L 358.8125 340.054688 L 404.996094 366.71875 L 404.996094 420.046875 L 312.628906 366.71875 L 312.628906 260.066406 Z M 404.996094 206.738281 " fill-opacity="1" fill-rule="evenodd"/></g><g clip-path="url(#93318931e7)"><path fill="#2c666e" d="M 404.996094 313.394531 L 451.179688 340.054688 L 451.179688 393.382812 L 404.996094 420.046875 L 404.996094 473.375 L 497.363281 420.046875 L 497.363281 313.394531 L 404.996094 260.066406 Z M 404.996094 313.394531 " fill-opacity="1" fill-rule="evenodd"/></g><path fill="#90ddf0" d="M 433.859375 223.402344 L 433.859375 263.398438 L 468.5 283.394531 L 468.5 243.402344 Z M 433.859375 223.402344 " fill-opacity="1" fill-rule="evenodd"/><g fill="#07393c" fill-opacity="1"><g transform="translate(294.501698, 554.112784)"><g><path d="M 61.671875 -59.546875 L 61.671875 0 L 50.359375 0 L 20.671875 -36.15625 L 20.671875 0 L 7.0625 0 L 7.0625 -59.546875 L 18.453125 -59.546875 L 48.0625 -23.390625 L 48.0625 -59.546875 Z M 61.671875 -59.546875 "/></g></g></g><g fill="#07393c" fill-opacity="1"><g transform="translate(363.225846, 554.112784)"><g><path d="M 7.0625 -59.546875 L 20.84375 -59.546875 L 20.84375 0 L 7.0625 0 Z M 7.0625 -59.546875 "/></g></g></g><g fill="#07393c" fill-opacity="1"><g transform="translate(391.12377, 554.112784)"><g><path d="M 19.390625 -48.3125 L 0.34375 -48.3125 L 0.34375 -59.546875 L 52.234375 -59.546875 L 52.234375 -48.3125 L 33.171875 -48.3125 L 33.171875 0 L 19.390625 0 Z M 19.390625 -48.3125 "/></g></g></g><g fill="#07393c" fill-opacity="1"><g transform="translate(443.687534, 554.112784)"><g><path d="M 35.890625 1.015625 C 29.710938 1.015625 24.140625 -0.3125 19.171875 -2.96875 C 14.210938 -5.632812 10.328125 -9.304688 7.515625 -13.984375 C 4.710938 -18.671875 3.3125 -23.929688 3.3125 -29.765625 C 3.3125 -35.609375 4.710938 -40.867188 7.515625 -45.546875 C 10.328125 -50.222656 14.210938 -53.894531 19.171875 -56.5625 C 24.140625 -59.226562 29.710938 -60.5625 35.890625 -60.5625 C 42.078125 -60.5625 47.632812 -59.226562 52.5625 -56.5625 C 57.5 -53.894531 61.382812 -50.222656 64.21875 -45.546875 C 67.050781 -40.867188 68.46875 -35.609375 68.46875 -29.765625 C 68.46875 -23.929688 67.050781 -18.671875 64.21875 -13.984375 C 61.382812 -9.304688 57.5 -5.632812 52.5625 -2.96875 C 47.632812 -0.3125 42.078125 1.015625 35.890625 1.015625 Z M 35.890625 -10.71875 C 39.410156 -10.71875 42.585938 -11.523438 45.421875 -13.140625 C 48.253906 -14.753906 50.476562 -17.007812 52.09375 -19.90625 C 53.71875 -22.800781 54.53125 -26.085938 54.53125 -29.765625 C 54.53125 -33.453125 53.71875 -36.742188 52.09375 -39.640625 C 50.476562 -42.535156 48.253906 -44.789062 45.421875 -46.40625 C 42.585938 -48.019531 39.410156 -48.828125 35.890625 -48.828125 C 32.378906 -48.828125 29.203125 -48.019531 26.359375 -46.40625 C 23.523438 -44.789062 21.300781 -42.535156 19.6875 -39.640625 C 18.070312 -36.742188 17.265625 -33.453125 17.265625 -29.765625 C 17.265625 -26.085938 18.070312 -22.800781 19.6875 -19.90625 C 21.300781 -17.007812 23.523438 -14.753906 26.359375 -13.140625 C 29.203125 -11.523438 32.378906 -10.71875 35.890625 -10.71875 Z M 35.890625 -10.71875 "/></g></g></g><g fill="#2c666e" fill-opacity="1"><g transform="translate(352.318461, 591.138926)"><g><path d="M 3.453125 -21.21875 L 5.703125 -21.21875 L 5.703125 -1.9375 L 17.578125 -1.9375 L 17.578125 0 L 3.453125 0 Z M 3.453125 -21.21875 "/></g></g></g><g fill="#2c666e" fill-opacity="1"><g transform="translate(378.260136, 591.138926)"><g><path d="M 16.765625 -5.671875 L 4.9375 -5.671875 L 2.390625 0 L 0.0625 0 L 9.765625 -21.21875 L 11.96875 -21.21875 L 21.671875 0 L 19.3125 0 Z M 15.9375 -7.484375 L 10.859375 -18.890625 L 5.765625 -7.484375 Z M 15.9375 -7.484375 "/></g></g></g><g fill="#2c666e" fill-opacity="1"><g transform="translate(408.080809, 591.138926)"><g><path d="M 16.828125 -10.9375 C 18.222656 -10.632812 19.296875 -10.035156 20.046875 -9.140625 C 20.804688 -8.242188 21.1875 -7.085938 21.1875 -5.671875 C 21.1875 -3.847656 20.515625 -2.445312 19.171875 -1.46875 C 17.828125 -0.488281 15.84375 0 13.21875 0 L 3.453125 0 L 3.453125 -21.21875 L 12.609375 -21.21875 C 14.972656 -21.21875 16.804688 -20.742188 18.109375 -19.796875 C 19.410156 -18.847656 20.0625 -17.503906 20.0625 -15.765625 C 20.0625 -14.585938 19.773438 -13.585938 19.203125 -12.765625 C 18.628906 -11.953125 17.835938 -11.34375 16.828125 -10.9375 Z M 5.703125 -19.375 L 5.703125 -11.671875 L 12.453125 -11.671875 C 14.171875 -11.671875 15.492188 -12 16.421875 -12.65625 C 17.359375 -13.3125 17.828125 -14.265625 17.828125 -15.515625 C 17.828125 -16.773438 17.359375 -17.734375 16.421875 -18.390625 C 15.492188 -19.046875 14.171875 -19.375 12.453125 -19.375 Z M 13.1875 -1.84375 C 15.082031 -1.84375 16.515625 -2.164062 17.484375 -2.8125 C 18.460938 -3.46875 18.953125 -4.476562 18.953125 -5.84375 C 18.953125 -8.5 17.03125 -9.828125 13.1875 -9.828125 L 5.703125 -9.828125 L 5.703125 -1.84375 Z M 13.1875 -1.84375 "/></g></g></g><g fill="#2c666e" fill-opacity="1"><g transform="translate(439.022754, 591.138926)"><g><path d="M 9.3125 0.1875 C 7.726562 0.1875 6.210938 -0.0625 4.765625 -0.5625 C 3.328125 -1.070312 2.210938 -1.742188 1.421875 -2.578125 L 2.296875 -4.296875 C 3.066406 -3.535156 4.085938 -2.914062 5.359375 -2.4375 C 6.640625 -1.96875 7.957031 -1.734375 9.3125 -1.734375 C 11.207031 -1.734375 12.628906 -2.078125 13.578125 -2.765625 C 14.523438 -3.460938 15 -4.367188 15 -5.484375 C 15 -6.335938 14.738281 -7.015625 14.21875 -7.515625 C 13.707031 -8.023438 13.078125 -8.414062 12.328125 -8.6875 C 11.585938 -8.957031 10.550781 -9.253906 9.21875 -9.578125 C 7.625 -9.984375 6.347656 -10.375 5.390625 -10.75 C 4.441406 -11.125 3.628906 -11.691406 2.953125 -12.453125 C 2.273438 -13.222656 1.9375 -14.265625 1.9375 -15.578125 C 1.9375 -16.648438 2.21875 -17.625 2.78125 -18.5 C 3.351562 -19.382812 4.222656 -20.085938 5.390625 -20.609375 C 6.566406 -21.140625 8.023438 -21.40625 9.765625 -21.40625 C 10.972656 -21.40625 12.15625 -21.238281 13.3125 -20.90625 C 14.476562 -20.570312 15.488281 -20.109375 16.34375 -19.515625 L 15.578125 -17.734375 C 14.691406 -18.316406 13.742188 -18.753906 12.734375 -19.046875 C 11.722656 -19.335938 10.734375 -19.484375 9.765625 -19.484375 C 7.898438 -19.484375 6.5 -19.125 5.5625 -18.40625 C 4.625 -17.695312 4.15625 -16.773438 4.15625 -15.640625 C 4.15625 -14.796875 4.410156 -14.113281 4.921875 -13.59375 C 5.441406 -13.082031 6.085938 -12.6875 6.859375 -12.40625 C 7.640625 -12.132812 8.6875 -11.835938 10 -11.515625 C 11.5625 -11.128906 12.820312 -10.75 13.78125 -10.375 C 14.738281 -10.007812 15.550781 -9.445312 16.21875 -8.6875 C 16.882812 -7.925781 17.21875 -6.898438 17.21875 -5.609375 C 17.21875 -4.535156 16.925781 -3.554688 16.34375 -2.671875 C 15.769531 -1.796875 14.882812 -1.097656 13.6875 -0.578125 C 12.5 -0.0664062 11.039062 0.1875 9.3125 0.1875 Z M 9.3125 0.1875 "/></g></g></g></svg>