<svg xmlns="http://www.w3.org/2000/svg" xmlns:xlink="http://www.w3.org/1999/xlink" width="1080" zoomAndPan="magnify" viewBox="0 0 810 809.999993" height="1080" preserveAspectRatio="xMidYMid meet" version="1.0"><defs><g/></defs><g fill="#07393c" fill-opacity="1"><g transform="translate(241.965135, 449.263535)"><g><path d="M 90.984375 -87.84375 L 90.984375 0 L 74.296875 0 L 30.5 -53.34375 L 30.5 0 L 10.421875 0 L 10.421875 -87.84375 L 27.234375 -87.84375 L 70.90625 -34.515625 L 70.90625 -87.84375 Z M 90.984375 -87.84375 "/></g></g></g><g fill="#07393c" fill-opacity="1"><g transform="translate(343.364251, 449.263535)"><g><path d="M 10.421875 -87.84375 L 30.75 -87.84375 L 30.75 0 L 10.421875 0 Z M 10.421875 -87.84375 "/></g></g></g><g fill="#07393c" fill-opacity="1"><g transform="translate(384.526273, 449.263535)"><g><path d="M 28.609375 -71.28125 L 0.5 -71.28125 L 0.5 -87.84375 L 77.0625 -87.84375 L 77.0625 -71.28125 L 48.9375 -71.28125 L 48.9375 0 L 28.609375 0 Z M 28.609375 -71.28125 "/></g></g></g><g fill="#07393c" fill-opacity="1"><g transform="translate(462.081533, 449.263535)"><g><path d="M 52.96875 1.5 C 43.84375 1.5 35.617188 -0.460938 28.296875 -4.390625 C 20.972656 -8.328125 15.238281 -13.742188 11.09375 -20.640625 C 6.957031 -27.546875 4.890625 -35.304688 4.890625 -43.921875 C 4.890625 -52.535156 6.957031 -60.296875 11.09375 -67.203125 C 15.238281 -74.109375 20.972656 -79.523438 28.296875 -83.453125 C 35.617188 -87.390625 43.84375 -89.359375 52.96875 -89.359375 C 62.082031 -89.359375 70.28125 -87.390625 77.5625 -83.453125 C 84.84375 -79.523438 90.570312 -74.109375 94.75 -67.203125 C 98.9375 -60.296875 101.03125 -52.535156 101.03125 -43.921875 C 101.03125 -35.304688 98.9375 -27.546875 94.75 -20.640625 C 90.570312 -13.742188 84.84375 -8.328125 77.5625 -4.390625 C 70.28125 -0.460938 62.082031 1.5 52.96875 1.5 Z M 52.96875 -15.8125 C 58.144531 -15.8125 62.828125 -17.003906 67.015625 -19.390625 C 71.203125 -21.773438 74.488281 -25.097656 76.875 -29.359375 C 79.257812 -33.628906 80.453125 -38.484375 80.453125 -43.921875 C 80.453125 -49.359375 79.257812 -54.210938 76.875 -58.484375 C 74.488281 -62.753906 71.203125 -66.078125 67.015625 -68.453125 C 62.828125 -70.835938 58.144531 -72.03125 52.96875 -72.03125 C 47.78125 -72.03125 43.09375 -70.835938 38.90625 -68.453125 C 34.71875 -66.078125 31.429688 -62.753906 29.046875 -58.484375 C 26.660156 -54.210938 25.46875 -49.359375 25.46875 -43.921875 C 25.46875 -38.484375 26.660156 -33.628906 29.046875 -29.359375 C 31.429688 -25.097656 34.71875 -21.773438 38.90625 -19.390625 C 43.09375 -17.003906 47.78125 -15.8125 52.96875 -15.8125 Z M 52.96875 -15.8125 "/></g></g></g></svg>