<svg xmlns="http://www.w3.org/2000/svg" xmlns:xlink="http://www.w3.org/1999/xlink" width="1080" zoomAndPan="magnify" viewBox="0 0 810 809.999993" height="1080" preserveAspectRatio="xMidYMid meet" version="1.0"><defs><g/></defs><g fill="#2c666e" fill-opacity="1"><g transform="translate(280.564022, 427.992828)"><g><path d="M 8.140625 -50.03125 L 13.4375 -50.03125 L 13.4375 -4.578125 L 41.453125 -4.578125 L 41.453125 0 L 8.140625 0 Z M 8.140625 -50.03125 "/></g></g></g><g fill="#2c666e" fill-opacity="1"><g transform="translate(341.740649, 427.992828)"><g><path d="M 39.515625 -13.359375 L 11.65625 -13.359375 L 5.640625 0 L 0.140625 0 L 23.015625 -50.03125 L 28.234375 -50.03125 L 51.09375 0 L 45.53125 0 Z M 37.59375 -17.65625 L 25.578125 -44.53125 L 13.578125 -17.65625 Z M 37.59375 -17.65625 "/></g></g></g><g fill="#2c666e" fill-opacity="1"><g transform="translate(412.064872, 427.992828)"><g><path d="M 39.671875 -25.796875 C 42.953125 -25.085938 45.484375 -23.671875 47.265625 -21.546875 C 49.054688 -19.429688 49.953125 -16.703125 49.953125 -13.359375 C 49.953125 -9.078125 48.367188 -5.78125 45.203125 -3.46875 C 42.035156 -1.15625 37.351562 0 31.15625 0 L 8.140625 0 L 8.140625 -50.03125 L 29.734375 -50.03125 C 35.304688 -50.03125 39.628906 -48.910156 42.703125 -46.671875 C 45.773438 -44.429688 47.3125 -41.257812 47.3125 -37.15625 C 47.3125 -34.394531 46.628906 -32.050781 45.265625 -30.125 C 43.910156 -28.195312 42.046875 -26.753906 39.671875 -25.796875 Z M 13.4375 -45.671875 L 13.4375 -27.515625 L 29.375 -27.515625 C 33.425781 -27.515625 36.546875 -28.285156 38.734375 -29.828125 C 40.929688 -31.378906 42.03125 -33.632812 42.03125 -36.59375 C 42.03125 -39.539062 40.929688 -41.789062 38.734375 -43.34375 C 36.546875 -44.894531 33.425781 -45.671875 29.375 -45.671875 Z M 31.09375 -4.359375 C 35.570312 -4.359375 38.953125 -5.117188 41.234375 -6.640625 C 43.523438 -8.171875 44.671875 -10.554688 44.671875 -13.796875 C 44.671875 -20.035156 40.144531 -23.15625 31.09375 -23.15625 L 13.4375 -23.15625 L 13.4375 -4.359375 Z M 31.09375 -4.359375 "/></g></g></g><g fill="#2c666e" fill-opacity="1"><g transform="translate(485.03332, 427.992828)"><g><path d="M 21.9375 0.421875 C 18.21875 0.421875 14.65625 -0.171875 11.25 -1.359375 C 7.84375 -2.546875 5.210938 -4.117188 3.359375 -6.078125 L 5.4375 -10.15625 C 7.238281 -8.34375 9.640625 -6.875 12.640625 -5.75 C 15.648438 -4.632812 18.75 -4.078125 21.9375 -4.078125 C 26.414062 -4.078125 29.773438 -4.894531 32.015625 -6.53125 C 34.253906 -8.175781 35.375 -10.3125 35.375 -12.9375 C 35.375 -14.9375 34.765625 -16.53125 33.546875 -17.71875 C 32.335938 -18.914062 30.847656 -19.832031 29.078125 -20.46875 C 27.316406 -21.113281 24.863281 -21.816406 21.71875 -22.578125 C 17.957031 -23.535156 14.957031 -24.453125 12.71875 -25.328125 C 10.476562 -26.210938 8.5625 -27.5625 6.96875 -29.375 C 5.375 -31.1875 4.578125 -33.640625 4.578125 -36.734375 C 4.578125 -39.253906 5.242188 -41.550781 6.578125 -43.625 C 7.910156 -45.695312 9.957031 -47.351562 12.71875 -48.59375 C 15.476562 -49.832031 18.910156 -50.453125 23.015625 -50.453125 C 25.867188 -50.453125 28.664062 -50.054688 31.40625 -49.265625 C 34.144531 -48.484375 36.515625 -47.40625 38.515625 -46.03125 L 36.734375 -41.8125 C 34.640625 -43.1875 32.398438 -44.21875 30.015625 -44.90625 C 27.628906 -45.601562 25.296875 -45.953125 23.015625 -45.953125 C 18.628906 -45.953125 15.328125 -45.101562 13.109375 -43.40625 C 10.898438 -41.71875 9.796875 -39.539062 9.796875 -36.875 C 9.796875 -34.875 10.398438 -33.265625 11.609375 -32.046875 C 12.828125 -30.835938 14.351562 -29.910156 16.1875 -29.265625 C 18.019531 -28.617188 20.484375 -27.914062 23.578125 -27.15625 C 27.253906 -26.25 30.222656 -25.351562 32.484375 -24.46875 C 34.742188 -23.59375 36.660156 -22.257812 38.234375 -20.46875 C 39.804688 -18.6875 40.59375 -16.269531 40.59375 -13.21875 C 40.59375 -10.695312 39.910156 -8.398438 38.546875 -6.328125 C 37.191406 -4.253906 35.109375 -2.609375 32.296875 -1.390625 C 29.492188 -0.179688 26.039062 0.421875 21.9375 0.421875 Z M 21.9375 0.421875 "/></g></g></g></svg>